<?xml version="1.0" standalone="no"?>
<!DOCTYPE svg PUBLIC "-//W3C//DTD SVG 20010904//EN"
 "http://www.w3.org/TR/2001/REC-SVG-20010904/DTD/svg10.dtd">
<svg version="1.0" xmlns="http://www.w3.org/2000/svg"
 width="128.000000pt" height="128.000000pt" viewBox="0 0 128.000000 128.000000"
 preserveAspectRatio="xMidYMid meet">

<g transform="translate(0.000000,128.000000) scale(0.100000,-0.100000)"
fill="#000000" stroke="none">
<path d="M480 1245 c-217 -60 -388 -233 -445 -450 -19 -76 -19 -233 0 -310 49
-191 191 -351 380 -427 77 -32 85 -33 225 -33 140 0 148 1 225 32 161 65 293
197 357 358 31 77 33 86 33 220 0 121 -3 149 -23 207 -26 73 -80 164 -137 227
-51 56 -170 134 -246 161 -84 30 -285 38 -369 15z m380 -255 l0 -70 -56 0
c-87 0 -94 -7 -94 -95 l0 -75 70 0 c79 0 76 5 64 -97 l-7 -53 -63 0 -64 0 0
-190 0 -190 -80 0 -80 0 0 190 0 190 -65 0 -65 0 0 75 0 75 65 0 65 0 0 80 c0
86 15 138 53 179 35 38 75 50 170 51 l87 0 0 -70z"/>
</g>
</svg>
