<?xml version="1.0" standalone="no"?>
<!DOCTYPE svg PUBLIC "-//W3C//DTD SVG 20010904//EN"
 "http://www.w3.org/TR/2001/REC-SVG-20010904/DTD/svg10.dtd">
<svg version="1.0" xmlns="http://www.w3.org/2000/svg"
 width="512.000000pt" height="512.000000pt" viewBox="0 0 512.000000 512.000000"
 preserveAspectRatio="xMidYMid meet">

<g transform="translate(0.000000,512.000000) scale(0.100000,-0.100000)"
fill="#000000" stroke="none">
<path d="M2375 5054 c-16 -2 -73 -9 -125 -15 -435 -49 -869 -231 -1240 -518
-110 -85 -327 -302 -412 -412 -277 -357 -445 -752 -515 -1206 -23 -150 -23
-536 0 -686 112 -727 493 -1334 1087 -1732 330 -221 669 -348 1085 -407 135
-19 503 -16 650 5 373 55 731 192 1035 395 617 413 996 1025 1102 1777 17 119
16 493 -1 615 -88 635 -394 1199 -866 1597 -357 302 -802 502 -1265 568 -108
16 -467 29 -535 19z m-811 -1043 c123 -60 189 -170 189 -311 1 -60 -5 -87 -25
-132 -35 -75 -98 -141 -166 -175 -78 -38 -194 -44 -274 -13 -79 29 -150 96
-190 178 -29 59 -33 76 -33 147 1 65 6 91 26 135 86 186 292 260 473 171z
m1980 -937 c229 -51 384 -197 456 -429 50 -162 53 -216 57 -917 l5 -658 -316
0 -316 0 0 544 c0 655 -7 725 -82 833 -58 85 -174 123 -314 104 -164 -23 -251
-109 -289 -286 -12 -57 -15 -175 -15 -632 l0 -563 -315 0 -315 0 0 990 0 990
300 0 300 0 0 -136 0 -136 64 60 c147 137 307 225 466 256 44 8 242 -4 314
-20z m-1814 -1004 l0 -1000 -320 0 -320 0 0 1000 0 1000 320 0 320 0 0 -1000z"/>
</g>
</svg>
