<?xml version="1.0" standalone="no"?>
<!DOCTYPE svg PUBLIC "-//W3C//DTD SVG 20010904//EN"
 "http://www.w3.org/TR/2001/REC-SVG-20010904/DTD/svg10.dtd">
<svg version="1.0" xmlns="http://www.w3.org/2000/svg"
 width="512.000000pt" height="512.000000pt" viewBox="0 0 512.000000 512.000000"
 preserveAspectRatio="xMidYMid meet">

<g transform="translate(0.000000,512.000000) scale(0.100000,-0.100000)"
fill="#000000" stroke="none">
<path d="M2370 5113 c-468 -44 -862 -180 -1220 -419 -384 -256 -682 -596 -886
-1009 -126 -258 -203 -511 -246 -810 -17 -118 -17 -512 0 -630 42 -295 120
-553 242 -800 137 -280 272 -468 494 -691 221 -220 412 -357 681 -489 188 -92
309 -137 500 -185 500 -126 1002 -102 1490 71 149 53 407 182 540 271 299 199
573 480 769 788 72 113 188 353 235 486 235 662 194 1372 -115 1993 -124 250
-263 447 -458 648 -216 224 -428 378 -711 518 -296 146 -572 225 -900 255
-102 9 -333 11 -415 3z m533 -882 c217 -47 416 -132 607 -258 160 -106 357
-303 463 -463 126 -190 211 -391 259 -614 19 -87 22 -132 23 -331 0 -204 -3
-242 -23 -339 -74 -346 -222 -618 -471 -867 -201 -200 -412 -333 -670 -418
-191 -64 -272 -75 -526 -76 -205 0 -242 3 -340 24 -344 74 -617 222 -866 470
-200 200 -334 414 -418 669 -64 193 -75 273 -75 532 0 206 2 248 22 337 49
224 132 421 259 613 106 160 303 357 463 463 193 127 399 214 610 256 154 30
148 29 375 26 168 -2 230 -7 308 -24z"/>
<path d="M2492 3979 c-110 -55 -228 -252 -306 -510 -25 -83 -65 -251 -66 -276
0 -10 95 -13 440 -13 345 0 440 3 440 13 0 32 -52 236 -85 333 -91 272 -224
456 -341 470 -28 4 -51 -1 -82 -17z"/>
<path d="M1990 3882 c-222 -98 -414 -246 -558 -430 -70 -90 -162 -237 -162
-259 0 -10 54 -13 289 -13 l288 0 18 93 c40 208 123 463 195 594 15 29 25 53
22 52 -4 0 -45 -17 -92 -37z"/>
<path d="M3059 3868 c70 -125 149 -361 192 -578 l22 -110 288 0 c225 0 289 3
289 13 0 21 -95 173 -163 260 -147 188 -354 345 -577 437 -40 17 -74 30 -76
30 -3 0 9 -24 25 -52z"/>
<path d="M1167 2913 c-20 -35 -47 -244 -47 -358 0 -81 22 -264 38 -320 l8 -30
320 -3 319 -2 0 360 0 360 -317 0 c-174 0 -319 -3 -321 -7z"/>
<path d="M2074 2843 c-10 -101 -10 -465 0 -565 l8 -78 478 0 478 0 8 78 c10
100 10 464 0 565 l-8 77 -478 0 -478 0 -8 -77z"/>
<path d="M3315 2560 l0 -360 319 2 320 3 8 30 c16 57 38 241 38 325 0 84 -22
268 -38 325 l-8 30 -320 3 -319 2 0 -360z"/>
<path d="M1270 1928 c0 -22 95 -173 162 -260 145 -186 339 -334 561 -430 48
-21 89 -38 91 -38 2 0 -9 24 -24 53 -72 132 -148 363 -191 577 l-22 110 -288
0 c-225 0 -289 -3 -289 -12z"/>
<path d="M2120 1928 c0 -7 11 -61 24 -119 53 -231 145 -454 235 -566 128 -159
234 -159 362 0 90 112 182 335 235 566 13 58 24 112 24 119 0 9 -95 12 -440
12 -345 0 -440 -3 -440 -12z"/>
<path d="M3251 1830 c-43 -217 -122 -453 -192 -577 -16 -29 -27 -53 -24 -53 2
0 44 17 92 38 238 102 435 260 593 473 58 79 130 199 130 218 0 8 -87 11 -289
11 l-288 0 -22 -110z"/>
</g>
</svg>
